<?xml version="1.0" standalone="no"?>
<!DOCTYPE svg PUBLIC "-//W3C//DTD SVG 20010904//EN"
 "http://www.w3.org/TR/2001/REC-SVG-20010904/DTD/svg10.dtd">
<svg version="1.0" xmlns="http://www.w3.org/2000/svg"
 width="300.000000pt" height="300.000000pt" viewBox="0 0 300.000000 300.000000"
 preserveAspectRatio="xMidYMid meet">
<metadata>
Created by potrace 1.10, written by Peter Selinger 2001-2011
</metadata>
<g transform="translate(0.000000,300.000000) scale(0.100000,-0.100000)"
fill="#000000" stroke="none">
<path d="M230 2502 c9 -18 14 -20 31 -12 21 12 63 4 54 -10 -3 -5 0 -12 6 -16
8 -4 9 -3 5 4 -4 7 -3 12 2 12 5 0 15 -13 22 -30 9 -21 19 -30 34 -29 17 1 17
2 4 6 -16 4 -19 9 -18 28 1 11 -28 34 -61 48 -30 12 -36 12 -48 0 -11 -12 -15
-12 -28 4 -13 17 -13 16 -3 -5z"/>
<path d="M208 2455 c-9 -20 -9 -34 0 -59 14 -39 15 -46 3 -46 -5 0 -12 10 -14
23 -3 18 -5 16 -6 -7 0 -16 -4 -27 -7 -23 -3 3 -16 -6 -29 -21 -39 -47 -9
-131 48 -132 12 0 24 -14 34 -39 10 -26 25 -43 46 -52 19 -9 31 -20 29 -29 -2
-8 0 -11 5 -7 4 5 8 14 8 20 0 5 6 12 13 15 6 2 12 -1 12 -7 0 -6 7 -8 15 -5
8 4 15 1 15 -6 0 -6 4 -8 10 -5 15 9 12 25 -6 25 -8 0 -13 4 -10 9 6 10 -16
21 -42 21 -13 0 -14 -2 -3 -9 9 -6 10 -11 2 -15 -15 -10 -53 3 -46 15 3 5 0 6
-8 3 -8 -3 -18 6 -25 21 -14 31 -16 57 -3 36 5 -7 14 -12 21 -9 9 3 4 14 -13
33 -21 24 -26 26 -27 13 0 -24 -35 -23 -60 2 -24 24 -26 68 -5 96 13 17 16 17
26 4 9 -13 10 -12 5 3 -3 9 -1 17 4 17 5 0 10 -8 12 -17 2 -13 10 -5 26 25 26
51 26 52 6 52 -11 0 -14 -6 -10 -17 5 -15 4 -15 -9 1 -8 11 -15 31 -15 45 0
19 3 22 9 12 7 -10 9 -7 8 12 -2 33 -4 33 -19 2z"/>
<path d="M346 2413 c7 -26 -8 -43 -32 -39 -25 5 -33 -5 -54 -60 -9 -24 -8 -26
10 -21 16 4 20 0 20 -21 0 -19 -3 -23 -9 -13 -6 9 -10 10 -16 2 -9 -15 9 -37
36 -44 17 -5 18 -3 8 9 -15 19 -6 28 21 19 15 -5 18 -10 11 -19 -8 -9 -7 -13
4 -13 8 0 12 4 9 9 -3 4 -1 8 5 8 17 0 24 -22 10 -32 -11 -8 -10 -9 4 -4 11 3
17 0 17 -10 0 -8 -4 -13 -9 -9 -5 3 -12 1 -16 -4 -7 -12 34 -36 54 -32 7 1 10
-2 7 -7 -3 -6 7 -15 24 -20 25 -9 30 -8 35 9 7 20 25 27 25 9 0 -5 7 -10 16
-10 9 0 12 -5 8 -12 -5 -7 -2 -9 9 -5 16 6 27 -11 27 -44 0 -13 -5 -17 -16
-12 -14 5 -14 3 -5 -13 21 -38 110 -129 117 -121 5 5 2 12 -6 17 -11 7 -7 10
17 10 17 0 35 -4 38 -10 8 -13 25 -13 25 0 0 11 -47 26 -68 21 -18 -3 -53 29
-45 42 4 6 1 7 -7 2 -10 -6 -12 -4 -8 7 5 11 0 14 -20 12 -26 -2 -26 -2 -8 12
11 8 15 14 9 14 -6 0 -13 17 -16 38 -5 30 -13 40 -39 51 -18 8 -37 15 -43 15
-5 1 -16 5 -22 9 -9 6 -11 3 -7 -7 8 -20 -5 -20 -30 -1 -10 7 -15 18 -11 24 4
7 0 8 -10 5 -9 -4 -15 -3 -13 2 1 5 -3 19 -10 32 -7 12 -9 22 -4 22 5 0 9 7 9
16 0 15 -2 15 -13 0 -13 -19 -30 -4 -18 15 5 8 1 8 -13 0 -15 -7 -24 -7 -35 2
-17 13 -43 81 -28 72 5 -3 21 6 36 20 21 20 30 23 37 13 6 -9 7 -7 3 6 -4 11
-1 23 6 28 10 6 9 8 -4 8 -9 0 -18 3 -21 8 -2 4 -2 1 -1 -5z"/>
<path d="M2712 2130 c-16 -10 -33 -23 -36 -29 -4 -6 -15 -11 -24 -11 -13 0
-14 2 -4 9 8 5 -8 9 -41 10 -42 1 -56 -2 -61 -14 -3 -9 -10 -13 -16 -10 -5 3
-10 2 -10 -2 0 -14 38 -34 45 -23 3 6 -1 10 -11 10 -13 0 -14 3 -4 15 19 23
74 19 96 -7 13 -16 14 -19 2 -10 -9 8 -19 9 -22 4 -3 -6 1 -13 9 -16 21 -8 75
4 75 16 0 6 -9 8 -19 5 -30 -7 -14 21 21 39 29 15 73 11 63 -7 -4 -5 2 -6 11
-2 13 5 16 3 11 -10 -4 -11 -2 -14 9 -10 9 3 14 -2 14 -16 0 -15 -5 -19 -17
-15 -11 4 -7 -5 11 -21 27 -24 31 -25 41 -11 16 22 41 20 65 -4 26 -26 26 -74
0 -100 -10 -10 -15 -22 -11 -25 23 -14 51 61 40 105 -6 22 -39 50 -61 51 -10
1 -22 3 -28 4 -5 1 -14 3 -19 4 -5 0 -12 15 -16 32 -4 17 -9 28 -12 25 -3 -2
-20 4 -38 14 -32 18 -33 18 -63 0z"/>
<path d="M2710 2100 c-9 -6 -10 -10 -3 -10 6 0 15 5 18 10 8 12 4 12 -15 0z"/>
<path d="M409 2088 c-7 -23 -5 -37 4 -31 7 4 8 0 4 -11 -5 -13 2 -27 25 -47
36 -31 48 -36 48 -17 0 6 -3 8 -7 5 -10 -11 -62 43 -56 59 2 7 11 10 19 7 21
-8 17 15 -5 27 -19 10 -30 13 -32 8z"/>
<path d="M2510 2050 c-13 -8 -12 -10 3 -10 9 0 17 5 17 10 0 12 -1 12 -20 0z"/>
<path d="M2486 2017 c3 -10 9 -15 12 -12 3 3 0 11 -7 18 -10 9 -11 8 -5 -6z"/>
<path d="M2517 2012 c6 -15 -44 -65 -57 -57 -14 8 -90 -28 -90 -43 0 -8 8 -6
22 8 12 11 33 20 47 20 24 -1 25 -2 9 -14 -26 -19 -22 -27 7 -14 13 6 27 20
31 30 3 11 8 17 12 14 7 -8 62 44 62 58 0 6 -11 11 -24 11 -15 0 -22 -5 -19
-13z"/>
<path d="M2666 2021 c-28 -6 -50 -31 -27 -31 6 0 8 -7 5 -15 -4 -8 -17 -15
-31 -15 -22 0 -24 2 -13 15 28 34 -26 2 -72 -43 -37 -36 -45 -49 -38 -63 7
-12 5 -20 -5 -29 -15 -13 -9 -44 8 -33 5 3 7 1 3 -5 -9 -14 14 -63 27 -55 6 3
7 1 3 -5 -10 -16 24 -79 43 -80 9 0 58 16 108 36 87 35 113 52 78 52 -8 0 -15
4 -15 9 0 21 13 41 27 41 8 0 11 5 8 10 -10 17 -21 11 -33 -16 -7 -14 -17 -22
-22 -19 -5 3 -7 0 -4 -8 4 -10 -17 -25 -67 -51 -40 -19 -75 -34 -77 -31 -3 3
0 5 6 5 18 0 2 29 -20 36 -11 3 -17 12 -14 20 3 8 2 14 -2 14 -4 0 -13 9 -20
21 -11 17 -11 20 0 13 9 -6 9 -3 -2 10 -12 16 -11 20 10 37 15 12 18 17 8 13
-20 -7 -26 20 -7 32 6 3 9 14 6 24 -3 13 0 17 9 13 8 -3 17 2 20 11 3 9 9 14
13 11 5 -2 24 0 44 6 31 8 35 13 32 37 -2 15 -2 22 1 15 4 -9 11 -9 30 -1 19
9 27 8 37 -1 10 -11 8 -12 -9 -7 -13 4 -26 1 -32 -7 -9 -10 -8 -14 3 -14 8 0
12 4 9 9 -3 4 -1 8 5 8 5 0 11 -6 13 -12 3 -8 18 -12 39 -10 30 3 36 -1 46
-28 13 -33 0 -100 -19 -100 -7 0 -6 -5 2 -15 9 -11 10 -19 1 -28 -8 -10 -7
-14 4 -14 16 0 29 28 46 100 11 47 6 74 -10 48 -7 -10 -10 -8 -16 8 -4 13 -4
25 -1 28 3 4 6 1 6 -5 0 -7 4 -12 9 -12 18 0 4 35 -23 54 -23 18 -28 19 -36 6
-8 -13 -13 -13 -37 1 -17 9 -39 13 -57 10z m104 -35 c0 -2 -11 -6 -25 -8 -13
-3 -22 -1 -19 3 5 9 44 13 44 5z m-243 -81 c0 -8 -4 -12 -9 -9 -5 3 -6 10 -3
15 9 13 12 11 12 -6z m-20 -37 c-3 -8 -6 -5 -6 6 -1 11 2 17 5 13 3 -3 4 -12
1 -19z m-5 -40 c-7 -7 -12 -8 -12 -2 0 6 3 14 7 17 3 4 9 5 12 2 2 -3 -1 -11
-7 -17z"/>
<path d="M484 2006 c10 -9 24 -12 30 -9 6 4 5 -1 -3 -10 -8 -10 -11 -20 -7
-24 3 -3 6 0 6 7 0 8 12 2 30 -15 16 -15 29 -31 28 -34 -2 -18 4 -22 16 -12
12 10 14 8 9 -11 -2 -13 -7 -30 -10 -38 -5 -18 -5 -20 5 -21 18 -4 30 -39 29
-86 -2 -40 -5 -49 -15 -41 -10 9 -11 6 -3 -15 11 -28 6 -92 -9 -141 -6 -15 -7
-40 -3 -54 5 -20 3 -23 -8 -17 -11 7 -11 5 1 -10 14 -17 13 -18 -3 -12 -11 4
-16 3 -12 -3 3 -6 -1 -20 -9 -32 -21 -29 -20 -72 1 -89 15 -12 16 -12 9 6 -17
41 -19 58 -8 51 6 -3 14 -1 18 5 5 8 3 9 -6 4 -10 -6 -12 -4 -7 9 4 10 7 20 7
23 0 3 7 0 15 -7 20 -17 25 -1 28 93 1 42 6 77 11 77 4 0 6 20 4 45 -2 25 1
45 5 45 5 0 7 24 5 54 -1 30 0 52 5 49 4 -2 7 8 7 22 0 21 -4 26 -22 23 -20
-3 -23 2 -26 32 -2 26 0 31 7 20 6 -8 13 -11 17 -7 4 4 -8 24 -28 45 -19 20
-47 50 -61 67 -15 16 -27 24 -27 17 0 -10 -5 -10 -22 -2 -22 11 -22 10 -4 -4z"/>
<path d="M2888 1928 c-9 -7 -23 -43 -32 -79 -19 -77 -19 -79 -6 -79 6 0 10 8
10 18 0 14 2 15 10 2 15 -23 12 -76 -5 -90 -8 -7 -12 -17 -8 -22 10 -17 32 33
32 72 1 19 -3 41 -8 49 -6 9 -4 29 5 53 7 21 11 45 8 53 -4 9 0 15 10 15 9 0
16 5 16 10 0 14 -13 13 -32 -2z"/>
<path d="M703 1907 c12 -13 24 -22 26 -20 6 4 -30 43 -40 43 -5 0 2 -10 14
-23z"/>
<path d="M743 1890 c4 -14 0 -38 -8 -53 -7 -15 -10 -29 -6 -32 5 -2 14 16 21
41 10 36 10 47 0 57 -10 10 -11 7 -7 -13z"/>
<path d="M2390 1894 c0 -11 -6 -14 -22 -9 -16 6 -20 4 -15 -8 4 -10 0 -13 -13
-10 -10 3 -21 0 -24 -6 -4 -5 -13 -8 -20 -5 -7 3 -18 -2 -25 -9 -9 -12 -8 -16
4 -21 19 -7 55 10 55 25 0 6 5 7 10 4 17 -11 46 4 58 30 7 15 8 25 2 25 -6 0
-10 -7 -10 -16z"/>
<path d="M760 1846 c0 -2 8 -10 18 -17 15 -13 16 -12 3 4 -13 16 -21 21 -21
13z"/>
<path d="M2230 1835 c-7 -9 -19 -14 -27 -11 -8 3 -11 2 -8 -4 3 -5 -4 -8 -15
-7 -11 1 -20 8 -20 17 0 12 -2 12 -9 1 -6 -9 -11 -10 -15 -2 -10 15 -72 -18
-88 -47 -7 -13 -11 -34 -10 -47 1 -13 -3 -27 -8 -30 -6 -3 -7 1 -4 9 3 9 1 16
-6 16 -6 0 -8 -4 -5 -10 3 -5 -1 -10 -9 -10 -9 0 -16 -5 -16 -10 0 -7 -8 -6
-22 1 -21 11 -22 11 -9 -5 12 -14 12 -16 -4 -10 -13 5 -16 4 -11 -4 4 -7 2
-12 -5 -12 -14 0 -92 -50 -97 -63 -2 -4 -8 -5 -13 -1 -5 3 -9 1 -9 -4 0 -5 -8
-13 -17 -16 -22 -8 -48 -23 -91 -54 -17 -13 -32 -21 -32 -18 0 5 -62 -33 -86
-53 -6 -5 -18 -4 -30 2 -17 9 -18 9 -5 -6 12 -16 12 -17 -5 -11 -10 4 -16 3
-11 -1 11 -12 -49 -35 -92 -35 -39 0 -94 -40 -86 -63 5 -13 -83 -72 -93 -62
-3 3 0 5 6 5 7 0 12 4 12 10 0 11 -57 7 -68 -5 -4 -4 3 -4 16 -1 16 5 22 3 22
-8 0 -8 5 -18 10 -21 15 -9 51 5 44 17 -4 7 -2 8 4 4 14 -8 55 11 48 23 -3 4
4 7 16 7 15 -1 22 6 23 22 2 26 -11 30 -18 5 -4 -17 -5 -17 -6 -1 -1 19 36 58
55 58 7 0 16 -9 19 -20 7 -23 18 -25 37 -7 7 7 17 14 21 15 13 2 102 58 120
76 9 9 19 17 22 16 21 -1 25 1 19 12 -4 7 -3 8 4 4 12 -7 92 39 92 53 0 5 8 8
18 7 9 0 16 5 14 12 -2 9 4 12 17 7 13 -4 25 2 37 18 19 23 25 27 45 27 5 0 7
5 3 12 -4 7 -3 8 4 4 16 -9 104 43 95 56 -3 7 -1 8 5 4 9 -6 30 3 70 30 2 1
-1 11 -7 21 -7 12 -10 14 -11 4 0 -8 -3 -12 -6 -8 -12 12 9 48 37 63 33 17 71
10 67 -11 -2 -8 0 -14 5 -14 26 -3 38 0 33 7 -3 5 5 8 17 8 12 -1 21 4 20 10
-1 7 6 10 20 7 20 -4 21 -3 5 10 -10 8 -15 17 -11 20 3 4 4 7 1 7 -3 0 -11 -7
-18 -15z"/>
<path d="M2365 1820 c-22 -10 -64 -28 -92 -40 -29 -12 -51 -26 -48 -30 3 -5
-3 -6 -12 -4 -28 7 -49 -11 -35 -29 10 -11 9 -17 0 -25 -21 -17 -68 -26 -68
-13 0 6 5 11 11 11 5 0 7 5 4 10 -6 9 -42 -3 -55 -19 -3 -3 -23 -16 -45 -28
-22 -13 -39 -28 -37 -34 1 -6 -3 -7 -9 -4 -6 4 -23 -1 -37 -11 -15 -11 -39
-26 -54 -33 -15 -8 -25 -17 -23 -21 3 -4 -3 -7 -13 -6 -9 0 -16 -4 -15 -11 2
-8 -4 -10 -14 -6 -12 5 -14 3 -8 -7 5 -9 4 -11 -3 -6 -15 9 -55 -18 -44 -29 4
-5 1 -5 -7 0 -9 5 -19 2 -28 -10 -7 -11 -13 -15 -13 -11 0 5 -6 4 -12 -2 -7
-5 -38 -24 -68 -41 -30 -17 -54 -35 -52 -41 1 -6 -2 -9 -8 -5 -13 8 -90 -37
-90 -54 0 -11 3 -11 15 -1 13 10 15 9 15 -8 0 -16 -5 -20 -17 -16 -15 5 -16 4
-3 -5 14 -10 7 -16 -13 -12 -5 1 -5 -4 -1 -10 5 -9 1 -10 -14 -7 -12 4 -20 2
-16 -3 6 -11 -4 -11 -31 1 -11 5 -14 9 -7 9 7 1 11 5 8 10 -9 13 -46 1 -46
-15 0 -8 -6 -11 -17 -7 -11 4 -14 3 -9 -5 4 -7 2 -10 -6 -7 -18 7 -58 -24 -40
-31 6 -3 12 -10 12 -15 0 -6 -5 -7 -10 -4 -6 4 -9 1 -8 -7 2 -7 -3 -12 -10
-10 -8 1 -11 -1 -9 -6 3 -4 -8 -15 -24 -24 -28 -17 -29 -17 -19 2 8 15 8 20
-2 20 -16 0 -173 -166 -173 -183 -1 -6 -7 -11 -14 -9 -7 1 -15 -7 -18 -18 -3
-11 -9 -18 -13 -15 -4 2 -15 -4 -25 -15 -10 -12 -13 -20 -7 -20 7 0 12 -8 13
-17 0 -15 2 -15 9 2 8 19 9 19 9 -2 1 -12 -2 -29 -5 -38 -5 -13 -8 -14 -15 -3
-6 9 -9 7 -9 -9 0 -14 6 -23 15 -23 8 0 15 9 15 20 0 11 4 20 8 20 4 0 6 16 4
35 -3 26 -1 35 9 33 8 -2 13 3 11 10 -3 17 34 56 46 48 5 -3 16 2 23 11 8 9 9
14 3 10 -7 -4 -14 0 -17 7 -4 10 0 13 14 11 11 -2 18 -1 15 3 -7 12 22 44 34
37 6 -3 9 -3 8 2 -2 5 7 22 20 38 19 24 25 27 32 15 6 -9 10 -10 10 -3 0 6 18
19 40 29 22 10 38 20 35 22 -3 3 0 11 6 18 6 8 9 20 6 27 -3 8 3 14 15 14 11
1 29 10 39 19 11 9 19 13 19 7 0 -5 18 -9 41 -9 41 1 89 33 89 60 0 7 10 21
22 32 12 10 18 13 13 5 -4 -7 22 9 58 38 36 28 69 46 72 41 3 -6 12 -10 18
-10 8 0 8 3 -1 9 -10 6 -10 10 2 20 8 7 20 10 26 6 6 -4 9 -1 8 5 -2 6 17 20
41 29 24 10 49 25 55 33 11 16 54 34 70 30 5 -2 6 4 2 13 -3 10 -2 14 5 10 6
-4 20 1 31 12 12 10 18 12 14 5 -4 -7 13 2 37 20 25 18 44 38 42 44 -2 6 3 11
11 11 7 0 10 -5 7 -11 -4 -6 3 -3 15 7 11 11 26 16 32 12 15 -9 55 2 75 21 10
10 20 13 28 7 7 -4 2 2 -11 13 -18 16 -21 23 -12 29 9 5 11 4 6 -3 -11 -19 16
-14 53 9 18 11 36 18 39 15 3 -4 -1 -6 -8 -6 -7 0 -11 -2 -8 -5 8 -8 39 6 33
15 -6 9 73 31 96 27 33 -6 66 -57 37 -57 -6 0 -8 -3 -5 -6 4 -4 13 -1 21 5 12
10 14 7 11 -16 -2 -15 0 -32 3 -38 4 -5 5 -23 3 -38 -4 -44 18 -86 48 -93 14
-3 32 -8 40 -10 16 -5 84 44 76 56 -9 14 6 39 23 38 9 -1 37 8 61 20 25 12 52
22 61 22 9 0 16 9 17 19 1 16 -2 18 -25 11 -40 -12 -113 -46 -108 -51 2 -2 -7
-5 -21 -6 -14 0 -33 -8 -41 -17 -15 -15 -15 -16 1 -16 9 0 17 -5 17 -11 0 -5
-4 -7 -10 -4 -6 4 -7 -1 -3 -12 6 -15 4 -16 -9 -5 -11 9 -18 10 -23 2 -3 -5
-1 -10 5 -10 6 0 8 -4 5 -10 -11 -17 -60 -11 -83 10 -23 22 -31 83 -13 95 6 3
8 -4 6 -17 -4 -20 -3 -20 11 -6 13 13 14 20 4 37 -6 12 -16 18 -22 15 -7 -4
-8 -3 -4 4 10 17 -21 85 -35 76 -8 -4 -9 -3 -5 4 8 14 -8 48 -26 55 -8 2 -31
-4 -53 -13z"/>
<path d="M685 1817 c-3 -7 -6 -51 -8 -99 -1 -47 -5 -84 -9 -81 -4 2 -7 -11 -7
-29 1 -18 -4 -64 -10 -102 -6 -43 -6 -76 -1 -85 5 -9 10 -11 10 -6 0 6 5 3 11
-5 9 -12 10 -10 5 9 -3 17 -2 21 6 13 6 -6 12 -19 13 -29 1 -16 7 -23 19 -23
3 0 -1 15 -9 34 -8 18 -11 36 -8 40 4 3 -1 6 -10 6 -10 0 -17 5 -17 11 0 5 5
7 10 4 6 -4 5 5 -2 20 -7 16 -8 29 -2 33 5 4 10 27 11 52 2 25 5 65 8 90 3 25
5 63 5 85 0 29 3 36 10 25 8 -13 10 -12 10 3 0 9 -4 17 -10 17 -5 0 -7 7 -4
15 4 8 1 15 -5 15 -7 0 -14 -6 -16 -13z"/>
<path d="M2070 1779 c0 -5 5 -7 10 -4 6 3 10 8 10 11 0 2 -4 4 -10 4 -5 0 -10
-5 -10 -11z"/>
<path d="M2819 1698 c-1 -2 -2 -15 -3 -30 -3 -23 -1 -25 16 -15 23 15 23 27 1
27 -15 0 -16 2 -3 10 10 6 11 10 3 10 -7 0 -13 -1 -14 -2z"/>
<path d="M2527 1569 c7 -7 15 -10 18 -7 3 3 -2 9 -12 12 -14 6 -15 5 -6 -5z"/>
<path d="M1698 1543 c7 -3 16 -2 19 1 4 3 -2 6 -13 5 -11 0 -14 -3 -6 -6z"/>
<path d="M1675 1410 c-3 -5 -1 -10 4 -10 6 0 11 5 11 10 0 6 -2 10 -4 10 -3 0
-8 -4 -11 -10z"/>
<path d="M686 1357 c3 -9 -2 -20 -14 -26 -18 -9 -19 -8 -14 11 4 15 2 19 -7
13 -12 -7 -11 -98 3 -365 1 -18 7 -25 21 -25 11 -1 26 -5 34 -9 8 -5 6 2 -5
19 -10 15 -19 46 -20 69 -2 22 -4 41 -5 41 -1 0 -3 51 -4 114 -3 103 -2 117
16 132 17 15 17 18 4 29 -13 11 -14 10 -9 -3z m-1 -377 c3 -5 1 -10 -4 -10 -6
0 -11 5 -11 10 0 6 2 10 4 10 3 0 8 -4 11 -10z"/>
<path d="M572 1322 c-1 -20 2 -46 9 -58 7 -15 8 -32 1 -58 -6 -20 -7 -34 -4
-32 4 2 8 -38 9 -90 1 -62 -2 -94 -9 -94 -7 0 -6 -5 2 -15 11 -13 10 -14 -4
-9 -9 3 -16 2 -16 -4 0 -6 8 -9 18 -8 9 2 17 8 17 14 0 6 4 14 9 19 5 4 6 3 2
-4 -3 -6 -2 -14 4 -18 10 -6 3 292 -9 354 -9 47 -25 49 -29 3z"/>
<path d="M1190 1280 c-9 -6 -10 -10 -3 -10 6 0 15 5 18 10 8 12 4 12 -15 0z"/>
<path d="M1165 1218 c-4 -13 -6 -29 -6 -36 1 -7 -5 -15 -14 -18 -9 -4 -14 -13
-11 -21 3 -8 1 -11 -4 -8 -14 9 -43 -22 -34 -36 5 -8 1 -8 -14 0 -17 9 -20 8
-18 -6 2 -9 7 -18 13 -20 16 -6 135 125 127 139 -6 9 -9 9 -12 0 -6 -20 -20
-13 -15 8 7 27 -3 25 -12 -2z"/>
<path d="M1130 1191 c0 -6 4 -13 10 -16 6 -3 7 1 4 9 -7 18 -14 21 -14 7z"/>
<path d="M1045 1060 c-4 -6 -11 -7 -17 -4 -6 4 -8 2 -5 -3 8 -13 -27 -46 -38
-36 -4 5 -5 3 -2 -3 9 -15 -15 -35 -45 -37 -29 -2 -68 -43 -68 -72 0 -30 -29
-60 -60 -62 -14 0 -32 -3 -40 -4 -18 -5 -40 -31 -34 -41 3 -5 2 -8 -3 -8 -4 0
-8 -11 -8 -25 0 -14 4 -25 8 -25 5 0 5 -4 2 -10 -3 -5 -3 -16 2 -22 11 -19 12
-38 1 -38 -5 0 -6 -9 -3 -21 5 -15 4 -19 -5 -14 -9 6 -9 3 -1 -12 9 -18 7 -20
-13 -18 -27 3 -30 -18 -4 -34 15 -9 20 -8 25 6 3 10 14 39 24 65 14 35 15 48
6 52 -7 2 -4 5 6 5 10 1 17 9 17 22 0 11 -4 18 -9 15 -19 -12 -41 6 -40 33 l1
26 9 -25 c8 -22 8 -21 4 7 -4 29 0 35 26 49 30 15 43 13 45 -7 1 -5 2 -12 3
-15 1 -7 81 75 81 83 0 3 -7 3 -15 -1 -22 -8 -20 37 3 56 23 21 62 32 62 19 0
-6 -5 -11 -11 -11 -5 0 -7 -5 -4 -10 5 -8 11 -7 21 1 7 6 11 15 8 20 -3 5 0 8
8 7 7 -2 12 3 10 10 -1 8 1 11 6 8 11 -6 63 49 55 58 -4 3 -1 6 5 6 7 0 12 5
12 10 0 13 -17 13 -25 0z m-285 -334 c0 -3 -4 -8 -10 -11 -5 -3 -10 -1 -10 4
0 6 5 11 10 11 6 0 10 -2 10 -4z"/>
<path d="M701 1014 c0 -11 3 -14 6 -6 3 7 2 16 -1 19 -3 4 -6 -2 -5 -13z"/>
<path d="M915 940 c-3 -5 -1 -10 4 -10 6 0 11 5 11 10 0 6 -2 10 -4 10 -3 0
-8 -4 -11 -10z"/>
<path d="M563 924 c-3 -9 -1 -25 5 -35 7 -10 12 -27 12 -36 0 -15 2 -16 10 -3
6 10 4 20 -7 32 -9 10 -13 26 -10 38 6 24 -1 27 -10 4z"/>
<path d="M711 921 c0 -14 -8 -32 -15 -40 -10 -11 -12 -21 -6 -31 8 -12 10 -11
10 6 0 11 5 25 11 31 6 6 9 21 6 34 l-4 24 -2 -24z"/>
<path d="M598 904 c-4 -4 -3 -14 2 -24 5 -10 7 -19 5 -21 -5 -6 -14 -167 -15
-267 0 -60 -3 -81 -12 -76 -7 4 -8 3 -4 -4 4 -7 3 -12 -2 -12 -23 0 -41 -47
-32 -84 17 -75 99 -104 138 -48 11 15 22 37 26 48 5 16 17 23 48 27 23 3 47
12 53 20 5 7 17 12 25 10 13 -4 13 -3 1 5 -12 9 -13 13 -1 26 11 14 10 22 -5
49 -16 30 -16 37 -2 84 9 28 12 55 9 58 -4 4 4 2 17 -5 13 -6 21 -7 17 -2 -3
6 -3 12 1 15 5 2 3 2 -4 1 -7 -2 -15 1 -19 7 -11 18 -31 -9 -43 -57 -6 -25 -8
-50 -5 -56 4 -6 3 -8 -3 -5 -12 7 -23 -14 -23 -41 1 -15 2 -15 15 1 13 18 14
18 24 -2 16 -28 14 -48 -2 -26 -11 14 -16 15 -22 5 -5 -8 -4 -11 2 -7 9 6 23
-12 23 -28 0 -16 -49 -45 -74 -44 -29 0 -29 1 -8 9 27 11 28 15 3 17 -11 1
-27 -7 -37 -18 -19 -21 -29 -53 -13 -43 5 3 9 -2 9 -11 0 -10 -5 -13 -12 -9
-7 4 -10 4 -6 -1 14 -15 -14 -35 -48 -35 -40 0 -74 32 -74 70 0 28 32 70 53
70 7 0 4 -5 -5 -11 -10 -5 -18 -15 -18 -22 0 -8 3 -7 9 2 5 7 14 11 20 7 7 -5
10 52 10 196 -1 192 -6 248 -21 232z"/>
<path d="M666 887 c-11 -43 -20 -417 -9 -417 18 0 46 39 39 55 -3 9 -11 13
-17 9 -8 -5 -9 -3 -4 6 8 13 8 310 0 318 -2 3 0 13 5 23 6 10 6 20 1 23 -5 3
-11 -4 -15 -17z"/>
<path d="M887 812 c-40 -41 -45 -52 -22 -52 8 0 15 -7 15 -15 0 -9 -6 -12 -15
-9 -8 4 -15 2 -15 -3 0 -5 9 -9 20 -10 23 -2 27 25 8 46 -11 11 -9 11 9 2 14
-7 24 -8 28 -1 6 9 0 13 -16 12 -3 -1 -6 5 -6 12 0 9 16 12 48 12 26 -1 45 2
42 7 -2 4 -16 7 -30 7 -18 0 -24 4 -19 15 9 25 -8 17 -47 -23z"/>
<path d="M560 419 c0 -5 5 -7 10 -4 6 3 10 8 10 11 0 2 -4 4 -10 4 -5 0 -10
-5 -10 -11z"/>
<path d="M711 394 c0 -11 3 -14 6 -6 3 7 2 16 -1 19 -3 4 -6 -2 -5 -13z"/>
<path d="M635 380 c-3 -5 -1 -10 4 -10 6 0 11 5 11 10 0 6 -2 10 -4 10 -3 0
-8 -4 -11 -10z"/>
</g>
</svg>
